<?xml version="1.0" encoding="UTF-8" standalone="no"?>
<!-- Generator: Adobe Illustrator 19.0.0, SVG Export Plug-In . SVG Version: 6.00 Build 0)  -->

<svg
   xmlns:dc="http://purl.org/dc/elements/1.1/"
   xmlns:cc="http://creativecommons.org/ns#"
   xmlns:rdf="http://www.w3.org/1999/02/22-rdf-syntax-ns#"
   xmlns:svg="http://www.w3.org/2000/svg"
   xmlns="http://www.w3.org/2000/svg"
   xmlns:sodipodi="http://sodipodi.sourceforge.net/DTD/sodipodi-0.dtd"
   xmlns:inkscape="http://www.inkscape.org/namespaces/inkscape"
   version="1.1"
   id="Layer_1"
   x="0px"
   y="0px"
   viewBox="0 0 512 512"
   style="enable-background:new 0 0 512 512;"
   xml:space="preserve"
   inkscape:version="0.91 r13725"
   sodipodi:docname="nh_icon.svg"><metadata
     id="metadata3377"><rdf:RDF><cc:Work
         rdf:about=""><dc:format>image/svg+xml</dc:format><dc:type
           rdf:resource="http://purl.org/dc/dcmitype/StillImage" /><dc:title></dc:title></cc:Work></rdf:RDF></metadata><defs
     id="defs3375" /><sodipodi:namedview
     pagecolor="#ffffff"
     bordercolor="#666666"
     borderopacity="1"
     objecttolerance="10"
     gridtolerance="10"
     guidetolerance="10"
     inkscape:pageopacity="0"
     inkscape:pageshadow="2"
     inkscape:window-width="1536"
     inkscape:window-height="801"
     id="namedview3373"
     showgrid="false"
     inkscape:zoom="1.234375"
     inkscape:cx="117.87342"
     inkscape:cy="256"
     inkscape:window-x="-8"
     inkscape:window-y="-8"
     inkscape:window-maximized="1"
     inkscape:current-layer="Layer_1" /><path
     inkscape:connector-curvature="0"
     style="fill:#3494a8;fill-opacity:1"
     d="m 105.70407,44.257305 -61.444749,62.290445 -7.1e-4,298.90323 61.444749,62.29045 300.59322,7.1e-4 61.44475,-62.29045 0,-298.90393 -61.44405,-62.289752 -300.59321,-7.03e-4 z m 239.14846,298.904635 -177.70442,0 0,-174.32303 177.70442,0 0,174.32303 z"
     id="path3337" /><polygon
     style="fill:#40adc4;fill-opacity:1"
     points="467.954,256.598 511.402,300.045 512,212.552 299.449,0 88.092,211.357 131.539,254.805 254.805,131.539 298.851,87.494 "
     id="polygon3339"
     transform="matrix(0.70710678,-0.70710678,0.70710678,0.70710678,-106.03825,255.99997)" /><polygon
     style="fill:#2b7889;fill-opacity:1"
     points="212.551,512 423.908,300.643 380.461,257.195 257.195,380.461 213.149,424.506 44.046,255.402 0.598,211.954 0,299.448 "
     id="polygon3341"
     transform="matrix(0.70710678,-0.70710678,0.70710678,0.70710678,-106.03825,255.99997)" /><g
     id="g3343"
     transform="matrix(0.70710678,0.70710678,-0.70710678,0.70710678,256,-106.03867)" /><g
     id="g3345"
     transform="matrix(0.70710678,0.70710678,-0.70710678,0.70710678,256,-106.03867)" /><g
     id="g3347"
     transform="matrix(0.70710678,0.70710678,-0.70710678,0.70710678,256,-106.03867)" /><g
     id="g3349"
     transform="matrix(0.70710678,0.70710678,-0.70710678,0.70710678,256,-106.03867)" /><g
     id="g3351"
     transform="matrix(0.70710678,0.70710678,-0.70710678,0.70710678,256,-106.03867)" /><g
     id="g3353"
     transform="matrix(0.70710678,0.70710678,-0.70710678,0.70710678,256,-106.03867)" /><g
     id="g3355"
     transform="matrix(0.70710678,0.70710678,-0.70710678,0.70710678,256,-106.03867)" /><g
     id="g3357"
     transform="matrix(0.70710678,0.70710678,-0.70710678,0.70710678,256,-106.03867)" /><g
     id="g3359"
     transform="matrix(0.70710678,0.70710678,-0.70710678,0.70710678,256,-106.03867)" /><g
     id="g3361"
     transform="matrix(0.70710678,0.70710678,-0.70710678,0.70710678,256,-106.03867)" /><g
     id="g3363"
     transform="matrix(0.70710678,0.70710678,-0.70710678,0.70710678,256,-106.03867)" /><g
     id="g3365"
     transform="matrix(0.70710678,0.70710678,-0.70710678,0.70710678,256,-106.03867)" /><g
     id="g3367"
     transform="matrix(0.70710678,0.70710678,-0.70710678,0.70710678,256,-106.03867)" /><g
     id="g3369"
     transform="matrix(0.70710678,0.70710678,-0.70710678,0.70710678,256,-106.03867)" /><g
     id="g3371"
     transform="matrix(0.70710678,0.70710678,-0.70710678,0.70710678,256,-106.03867)" /></svg>